<?xml version="1.0" encoding="utf-8"?>
<!-- Generator: Adobe Illustrator 21.0.0, SVG Export Plug-In . SVG Version: 6.00 Build 0)  -->
<svg version="1.1" id="Слой_1" xmlns="http://www.w3.org/2000/svg" xmlns:xlink="http://www.w3.org/1999/xlink" x="0px" y="0px"
	 viewBox="0 0 518 126.4" style="enable-background:new 0 0 518 126.4;" xml:space="preserve">
<style type="text/css">
	.st0{fill:#8A3BAB;}
	.st1{fill:#FFFFFF;}
	.st2{fill:#E2E2E2;}
	.st3{fill:#3B7599;}
	.st4{fill:#F3A10F;}
	.st5{fill:#CFD2D2;}
	.st6{fill:#4B5858;}
	.st7{fill:#0E4F9C;}
</style>
<title>Logo_PH</title>
<g id="Слой_2">
	<g id="Слой_1-2">
		<path class="st0" d="M158.5,26.7v56.6h28.7c2,0,3.9-0.1,5.8-0.2c1.9-0.1,3.8-0.4,5.6-0.9c1.9-0.5,3.7-1.3,5.4-2.4
			c2.6-1.7,4.6-4.1,5.6-7c0.4-1.1,0.7-2.3,0.9-3.4c0.1-0.9,0.2-1.7,0.2-2.6c0-0.7,0-1.5-0.1-2.2c-0.1-1-0.4-2.1-0.7-3.1
			c-0.4-1.2-0.9-2.3-1.6-3.4c-0.8-1.2-1.8-2.2-2.9-3.1c-0.7-0.5-1.3-0.9-2.1-1.2c-0.7-0.3-1.5-0.7-2.3-1l1.4-0.7
			c0.4-0.2,0.7-0.4,1-0.5c0.3-0.2,0.5-0.4,0.8-0.6c0.9-0.7,1.7-1.6,2.4-2.5c0.6-0.9,1-1.8,1.3-2.8c0.3-0.8,0.5-1.7,0.6-2.5
			c0.1-0.6,0.1-1.2,0.1-1.8c0-1-0.1-2-0.3-3c-0.2-0.8-0.4-1.6-0.7-2.4c-0.2-0.5-0.4-1-0.6-1.5c-0.6-1.1-1.4-2.1-2.3-3
			c-1-1-2.2-1.8-3.5-2.4c-1.6-0.7-3.3-1.3-5-1.6c-2.3-0.5-4.6-0.7-7-0.8c-0.8,0-1.7-0.1-2.5-0.1L158.5,26.7L158.5,26.7z M176.2,39.6
			h7.8c0.9,0,1.7,0,2.6,0.1c0.9,0.1,1.7,0.4,2.5,0.8c0.8,0.4,1.4,1.1,1.8,1.9c0.1,0.2,0.2,0.5,0.3,0.8c0.1,0.4,0.2,0.9,0.2,1.4
			c0,0.4,0,0.8-0.1,1.1c-0.1,0.2-0.1,0.5-0.2,0.7c-0.3,0.7-0.8,1.3-1.4,1.8c-0.6,0.4-1.3,0.7-2,0.9c-0.8,0.2-1.5,0.3-2.3,0.4
			c-0.8,0-1.5,0.1-2.1,0.1h-7L176.2,39.6L176.2,39.6z M176.2,59.6h7.8c1.4,0,2.8,0.1,4.2,0.3c1,0.1,2,0.5,2.9,1
			c0.7,0.5,1.3,1.2,1.6,2c0.1,0.3,0.2,0.7,0.3,1c0.2,1.2,0.1,2.4-0.4,3.5c-0.3,0.6-0.7,1.1-1.2,1.5c-0.4,0.3-0.9,0.6-1.4,0.8
			c-0.4,0.1-0.8,0.3-1.2,0.4c-0.8,0.2-1.6,0.3-2.4,0.3c-0.8,0-1.6,0-2.3,0h-7.9L176.2,59.6L176.2,59.6z M247.2,25.2
			c-1,0-2.1,0.1-3.5,0.2c-1.5,0.2-3.1,0.4-4.6,0.8c-1.7,0.4-3.5,1-5.1,1.7c-1.8,0.8-3.6,1.8-5.2,3c-1.8,1.3-3.3,2.9-4.7,4.7
			c-1.5,2.1-2.8,4.3-3.7,6.7c-0.6,1.7-1.2,3.5-1.5,5.3c-0.3,1.5-0.5,3-0.6,4.5c-0.1,1.3-0.1,2.3-0.1,3.1c0,2.8,0.3,5.5,0.9,8.2
			c0.6,2.6,1.5,5.1,2.8,7.5c1.2,2.3,2.8,4.4,4.7,6.3s4.2,3.4,6.7,4.6c1.8,0.9,3.8,1.5,5.8,2c1.6,0.4,3.3,0.7,5,0.8
			c1.5,0.1,2.7,0.2,3.5,0.2s2.1,0,3.6-0.2c1.6-0.1,3.3-0.4,4.9-0.8c1.9-0.4,3.8-1.1,5.6-1.9c2-0.9,3.9-2.1,5.6-3.4
			c1.9-1.6,3.6-3.4,5-5.5c0.6-0.9,1.1-1.8,1.6-2.7c1.5-2.8,2.5-5.8,3-8.9c0.4-2.1,0.5-4.1,0.5-6.2c0-2.9-0.3-5.8-1-8.6
			c-0.6-2.7-1.6-5.3-2.9-7.7c-2.7-4.9-6.8-8.7-11.9-11c-1.9-0.8-3.8-1.5-5.8-1.9c-1.6-0.4-3.3-0.6-5-0.7
			C249.1,25.2,248,25.1,247.2,25.2L247.2,25.2z M247.6,39.3c1.4,0,2.8,0.2,4.1,0.6c1.1,0.4,2,0.9,2.9,1.7c0.7,0.6,1.4,1.4,1.9,2.2
			c0.5,0.7,0.8,1.5,1.1,2.3c0.2,0.6,0.4,1.2,0.6,1.8c0.2,0.9,0.4,1.8,0.5,2.7s0.2,1.7,0.2,2.4s0,1.2,0,1.4c0,2-0.1,4-0.4,5.9
			c-0.2,1.4-0.6,2.8-1.2,4.1c-0.4,1-1,2-1.7,2.8c-0.9,1.1-2.1,2.1-3.4,2.6c-1.4,0.5-2.8,0.8-4.3,0.8c-0.6,0-1.2,0-1.8-0.1
			c-0.8-0.1-1.6-0.3-2.4-0.6c-1-0.4-1.8-0.9-2.6-1.6c-0.9-0.8-1.6-1.7-2.2-2.7c-0.7-1.3-1.2-2.7-1.5-4.1c-0.4-2-0.6-4.1-0.5-6.2
			c0-0.4,0-1,0-1.9c0-1,0.1-2.1,0.3-3.1c0.2-1.2,0.5-2.5,0.9-3.7c0.5-1.3,1.1-2.5,1.9-3.6c0.4-0.6,0.9-1.1,1.5-1.6
			c0.7-0.6,1.6-1.1,2.5-1.4C245.1,39.5,246.3,39.3,247.6,39.3L247.6,39.3z M341.2,48.4c-0.2-1.3-0.4-2.6-0.7-3.9
			c-0.3-1.3-0.7-2.6-1.2-3.8c-1-2.6-2.4-4.9-4.2-7c-1.7-1.9-3.7-3.6-5.9-4.8c-2.3-1.3-4.7-2.2-7.2-2.8c-2.6-0.6-5.3-0.9-8-0.9
			c-2.4,0-4.8,0.2-7.1,0.7c-1.8,0.4-3.6,0.9-5.3,1.6c-1.3,0.5-2.5,1.2-3.7,1.9c-2.2,1.3-4.2,3-5.9,4.9c-1.6,1.9-3,3.9-4,6.1
			c-1.1,2.2-1.8,4.6-2.3,7c-0.5,2.5-0.8,5-0.8,7.5c0,2.8,0.3,5.6,0.8,8.4c0.5,2.7,1.5,5.4,2.7,7.8c1.3,2.5,2.9,4.7,4.9,6.7
			c1,0.9,2,1.7,3.1,2.5c1.4,0.9,2.8,1.6,4.4,2.2c1.9,0.7,3.8,1.3,5.8,1.6c2.5,0.4,5,0.6,7.6,0.6c1.7,0,3.4-0.1,5.1-0.3
			c1.2-0.1,2.5-0.3,3.7-0.6c0.9-0.2,1.9-0.5,2.8-0.8c1.9-0.7,3.8-1.7,5.4-2.9c1.5-1.1,2.8-2.3,4-3.7c1-1.2,1.9-2.5,2.7-3.9
			c0.7-1.2,1.2-2.4,1.7-3.6c0.4-0.9,0.7-1.8,0.9-2.7c0.1-0.4,0.2-0.8,0.3-1.2s0.2-0.8,0.2-1.2c0.1-0.5,0.2-1.1,0.3-1.9h-18
			c0,0.3-0.1,0.8-0.3,1.5c-0.2,0.8-0.4,1.5-0.7,2.2c-0.4,0.9-0.9,1.7-1.5,2.4c-0.7,0.8-1.6,1.5-2.6,2c-0.6,0.3-1.3,0.5-2,0.7
			c-3.2,0.8-6.6-0.2-8.9-2.6c-0.8-0.9-1.5-1.9-2.1-3c-0.5-1.1-1-2.3-1.2-3.6c-0.2-0.8-0.3-1.7-0.4-2.6c-0.1-0.8-0.1-1.6-0.1-2.2
			s0-1.1,0-1.4c0-1.5,0.1-2.9,0.2-4.4c0.2-1.4,0.5-2.9,1-4.2s1.2-2.6,2.1-3.7c0.7-0.9,1.7-1.7,2.7-2.2c0.8-0.5,1.7-0.8,2.6-1
			c0.7-0.1,1.3-0.2,2-0.2c0.5,0,1,0,1.5,0.1c0.7,0.1,1.5,0.3,2.2,0.6c0.8,0.3,1.6,0.8,2.2,1.4c0.8,0.7,1.4,1.6,1.9,2.5
			c0.3,0.6,0.5,1.1,0.7,1.8c0.2,0.5,0.3,1.1,0.4,1.6s0.1,0.8,0.1,1L341.2,48.4z M361.9,26.7l-20.2,56.6h17.9l2.1-7.3h19l2.2,7.3
			h18.3l-20.1-56.6L361.9,26.7z M371.2,43.8l6,20.6h-12.1L371.2,43.8L371.2,43.8z M453.1,42.9c-0.3-1.4-0.5-2.6-0.8-3.5
			c-0.2-0.8-0.5-1.6-0.8-2.4c-0.3-0.7-0.6-1.4-1-2c-0.7-1.1-1.4-2.1-2.3-3.1c-0.9-0.9-1.9-1.8-2.9-2.5c-1.6-1.1-3.3-2-5.1-2.6
			c-1.8-0.6-3.6-1-5.5-1.2s-3.8-0.3-5.7-0.3c-1.8,0-3.5,0.1-5.4,0.2c-1.8,0.2-3.6,0.5-5.3,0.9c-1.8,0.5-3.5,1.2-5.1,2.1
			c-1.7,0.9-3.1,2.2-4.4,3.6c-1,1.3-1.9,2.7-2.5,4.2c-0.9,2.2-1.4,4.5-1.4,6.9c0,1.2,0.1,2.5,0.4,3.7c0.2,0.8,0.4,1.5,0.7,2.2
			c0.5,1.5,1.3,2.9,2.2,4.2c0.9,1.2,2,2.2,3.2,3c1.3,0.9,2.7,1.7,4.2,2.3c1.1,0.5,2.4,0.9,3.7,1.3s2.7,0.8,4.1,1.2s2.7,0.7,3.9,1
			c1.8,0.5,3.4,0.9,4.6,1.2c1,0.3,2,0.7,2.9,1.2c0.5,0.4,1,0.9,1.2,1.5c0.2,0.4,0.3,0.9,0.3,1.3c0,0.5-0.1,1-0.3,1.4
			c-0.1,0.3-0.3,0.5-0.5,0.8c-0.4,0.5-0.9,0.9-1.5,1.2c-0.6,0.3-1.1,0.5-1.8,0.6c-0.5,0.1-1,0.2-1.6,0.2c-0.5,0-0.8,0-0.9,0
			c-1.3,0-2.5-0.1-3.8-0.4c-0.9-0.2-1.8-0.6-2.5-1.2c-0.6-0.5-1.2-1-1.5-1.7c-0.1-0.3-0.2-0.6-0.3-0.9c-0.1-0.3-0.2-0.8-0.3-1.3
			h-17.9c0.1,1,0.2,1.7,0.3,2.3c0.1,0.5,0.2,1,0.3,1.5c0.4,1.4,1,2.8,1.7,4.1c0.9,1.6,2,3,3.3,4.2c1.6,1.5,3.4,2.7,5.4,3.6
			c2.5,1.2,5.2,1.9,7.9,2.3c1,0.2,2.1,0.3,3.1,0.4s1.8,0.1,2.6,0.2s1.3,0,1.6,0c1.9,0,3.7-0.1,5.6-0.3c1.8-0.2,3.6-0.6,5.4-1.2
			s3.5-1.4,5.1-2.5c3-1.9,5.4-4.7,6.8-8.1c0.5-1.3,0.9-2.6,1.1-3.9c0.2-1,0.3-2,0.3-3c0-2.2-0.4-4.3-1.2-6.3c-0.4-1.1-1-2.1-1.6-3.1
			c-0.5-0.8-1.1-1.5-1.8-2.1c-0.4-0.4-0.9-0.9-1.4-1.2c-1.1-0.8-2.2-1.4-3.5-2c-1.2-0.6-2.5-1.1-3.8-1.5s-2.6-0.8-3.9-1.2
			s-2.6-0.7-3.9-1c-1.6-0.4-3-0.8-4.3-1.1c-1.1-0.3-2.3-0.6-3.4-1c-0.8-0.2-1.5-0.6-2.2-1.2c-0.3-0.3-0.5-0.6-0.6-0.9
			c-0.1-0.4-0.2-0.8-0.2-1.2c0-0.3,0.1-0.7,0.2-1s0.3-0.6,0.5-0.9c0.2-0.4,0.6-0.8,1-1c0.5-0.3,1.1-0.5,1.6-0.6
			c0.9-0.1,1.7-0.2,2.6-0.2c1.1,0,2.3,0.1,3.4,0.3c0.7,0.2,1.5,0.5,2.1,1c0.5,0.4,0.9,0.9,1.2,1.4c0.3,0.6,0.5,1.2,0.7,1.8
			L453.1,42.9L453.1,42.9z M464.1,26.7v56.6h18.4V60.9h16.7v22.4h18.6V26.7h-18.6v19.2h-16.6V26.7H464.1z"/>
		<path class="st0" d="M58,83.5c-0.2,0-0.4,0-0.6,0s-0.4-0.1-0.5-0.2c-0.2-0.2-0.4-0.4-0.4-0.7c-0.1-0.3-0.1-0.6-0.2-1
			c0-0.3,0-0.6,0-0.8c-0.1-1.2-0.1-2.6-0.1-4s0-2.9-0.1-4.4c0-1.5-0.2-2.9-0.3-4.4c-0.2-1.3-0.5-2.6-0.9-3.9
			c-0.5-1.4-1.2-2.7-2.2-3.7c-0.8-0.8-1.7-1.5-2.7-2c-0.8-0.3-1.6-0.6-2.4-0.8c-0.4-0.1-0.9-0.2-1.3-0.3L45,57
			c0.8-0.2,1.6-0.4,2.4-0.7s1.5-0.7,2.2-1.2c1.4-0.9,2.7-2.1,3.7-3.5s1.8-3,2.3-4.6c0.5-1.7,0.8-3.4,0.8-5.2c0-1.4-0.2-2.8-0.5-4.2
			c-0.3-1.1-0.6-2.1-1.1-3.2c-0.3-0.7-0.7-1.4-1.1-2c-0.9-1.4-2-2.7-3.4-3.7c-1.2-0.9-2.6-1.7-4-2.3c-1.3-0.5-2.6-0.9-4-1.2
			c-1.1-0.2-2.2-0.4-3.4-0.5c-1-0.1-1.7-0.1-2.1-0.1s-1.2-0.1-1.8-0.1H0v60.7h19.2v-21h9.9c0.3,0,0.7,0,1,0c0.6,0,1.2,0.1,1.7,0.2
			c0.7,0.1,1.4,0.4,2,0.7c0.6,0.4,1.2,0.8,1.6,1.4c0.5,0.7,0.9,1.6,1.1,2.5c0.3,1.1,0.4,2.2,0.5,3.4c0.1,1.3,0.1,2.8,0.1,4.5
			c0,1.2,0,2.2,0.1,2.9c0.1,0.8,0.1,1.5,0.1,2s0.1,1.1,0.2,1.6s0.2,1.1,0.3,1.8h20.1L58,83.5L58,83.5z M19.2,39h10.9
			c0.9,0,1.8,0.1,2.7,0.2c0.9,0.1,1.7,0.4,2.4,0.9c0.8,0.5,1.4,1.2,1.8,2c0.2,0.5,0.4,1,0.5,1.5c0.1,1,0,2-0.2,3
			c-0.1,0.4-0.3,0.8-0.4,1.2c-0.6,0.9-1.4,1.7-2.4,2.1c-1,0.4-2.1,0.7-3.2,0.8c-0.3,0-0.5,0-0.8,0s-0.5,0-0.8,0H19.2V39z"/>
		<path class="st0" d="M106.8,14.6l-5.2,0.3l-4.7,0.8l-3.7,1l-5.8,2.4l-2.5,1.4l-3.3,2.3l-2.7,2.4l-1.8,1.9l-1.8,2.2l-1.1,1.6
			l-1.5,2.6l-0.8,1.7l-0.8,1.7l-1,2.1l-0.8,2.5L69,43l-0.5,2.3l-0.4,2.3L67.7,50l-0.2,2.2v2.6v1.9l0.1,2.5l0.2,2.4l0.2,1.7l0.3,1.9
			l0.3,1.5l0.6,2.2l0.5,1.6l0.6,1.7l0.6,1.6l0.3,0.7l0.6,1.4l0.6,1l0.7,1.2l0.5,0.8l0.9,1.1l0.8,1.1l0.8,1l1,1.1l0.9,0.9l0.5,0.5
			l1.1,1l0.8,0.7l0.9,0.8l1,0.8l1.1,0.8l1.9,1.2l0.8,0.5l1.6,0.8l1.2,0.6l1.8,0.7l2.1,0.7l1.3,0.4l1.9,0.5l1.6,0.3l1.3,0.2l2,0.3
			l1.7,0.2l1.2,0.1l1.3,0.1h1.1h1.1h1.6l1.8-0.1l0.7-0.1l2.2-0.2l2.2-0.3l1.7-0.3l0.8-0.2l1-0.2l1.6-0.4l1.1-0.4l1.4-0.5l1.1-0.4
			l1.2-0.5l1.1-0.5l1-0.5l1-0.5l1-0.6l1-0.7l1.1-0.8l1-0.8l0.8-0.6l1.3-1.2l1.2-1.2l1.1-1.2l1.1-1.3l1-1.3l0.9-1.3l0.9-1.3l0.7-1.3
			l0.6-1.2l0.7-1.4l0.6-1.2l0.7-1.7l0.3-0.9l0.6-1.8l0.6-2.3l0.2-1.1l0.3-1.5l0.2-1.3l0.2-1.5l0.1-1.8l0.1-2.6v-2.7L147,51l-0.2-2
			l-0.3-2.1l-0.2-1.2l-0.5-2.4l-0.4-1.6l-0.8-2.6l-0.5-1.4l-0.5-1.2l-0.4-0.8l-0.7-1.4l-0.5-0.9l-0.3-0.6l-0.4-0.7l-0.6-1l-0.7-1
			l-0.5-1.1l-0.6-0.8l-0.6-0.7l-0.4-0.5l-0.7-0.7l-0.6-0.6l-0.4-0.4l-0.5-0.5l-0.7-0.7l-0.7-0.6l-0.6-0.5l-0.8-0.6l-0.9-0.7
			l-0.9-0.6l-1.1-0.7l-1.1-0.6l-0.8-0.5l-1.1-0.6l-0.7-0.3l-0.8-0.3l-0.7-0.3l-1.1-0.4l-0.9-0.3l-1.1-0.3l-1.1-0.3l-1.4-0.4
			l-1.4-0.3l-1.4-0.3l-1.9-0.5l-1.9-0.2l-1.7-0.1l-2.1-0.1L106.8,14.6L106.8,14.6z M107,30.2l-3.2,0.2l-2.9,0.5l-2.3,0.6L95,33
			l-1.5,0.9l-2,1.4l-1.7,1.5L88.7,38l-1.1,1.3l-0.7,1L86,41.9l-0.5,1l-0.5,1l-0.5,1.4L84,46.8l-0.2,0.9l-0.3,1.4l-0.2,1.4L83.1,52
			L83,53.3l-0.1,1.6V56l0.1,1.6l0.1,1.5l0.1,1l0.2,1.1l0.2,0.9l0.3,1.3l0.3,1l0.4,1l0.4,1l0.2,0.4l0.4,0.8l0.3,0.6l0.6,0.8l0.3,0.5
			l0.5,0.8l0.5,0.7l0.5,0.6l0.6,0.7l0.5,0.6l0.3,0.3l0.7,0.6l0.5,0.4l0.6,0.5l0.6,0.5l0.7,0.5l1.2,0.7l0.5,0.3l1,0.5l0.8,0.3
			l1.1,0.4l1.3,0.4l0.8,0.2l1.2,0.3l1,0.2l0.8,0.1l1.2,0.2l1,0.1l0.8,0.1h0.8h1.3h1l1.1-0.1h0.4l1.4-0.1l1.4-0.2l1-0.2l0.5-0.1
			l0.6-0.1l1-0.3l0.7-0.2l0.8-0.3l0.7-0.3l0.8-0.3l0.5-0.3l0.6-0.3l0.6-0.3l0.6-0.3l0.6-0.4l0.7-0.5l0.6-0.5l0.5-0.4l0.8-0.7
			l0.7-0.7l0.7-0.7l0.7-0.8l0.6-0.8l0.6-0.8l0.5-0.8l0.4-0.8l0.4-0.7l0.4-0.9l0.3-0.8l0.4-1.1l0.2-0.5l0.3-1.1l0.4-1.4l0.1-0.7
			l0.2-0.9l0.1-0.8l0.1-0.9l0.1-1.1l0.1-1.6V54l-0.1-1.6l-0.1-1.2l-0.2-1.3l-0.1-0.7l-0.3-1.4l-0.3-1l-0.5-1.6l-0.3-0.9l-0.3-0.7
			l-0.2-0.5l-0.4-0.8l-0.3-0.5l-0.2-0.4l-0.2-0.4l-0.4-0.6l-0.4-0.6l-0.5-0.7l-0.4-0.5l-0.4-0.5l-0.4-0.4l-0.4-0.5l-0.4-0.4
			l-0.3-0.3l-0.3-0.3l-0.4-0.4l-0.4-0.4l-0.3-0.3l-0.5-0.4l-0.5-0.4l-0.6-0.4l-0.7-0.4l-0.7-0.4l-0.6-0.3l-0.7-0.3l-0.4-0.2
			l-0.5-0.2l-0.4-0.2l-0.7-0.3l-0.5-0.2l-0.7-0.2l-0.7-0.2l-0.6,0l-0.9-0.2l-0.8-0.2l-1-0.2l-1.1-0.1l-1.1-0.1h-1.3L107,30.2z"/>
		<path class="st1" d="M76.5,51.7c0.5-1.2,1.3-2.3,2.3-3.2l1.1-19.4c0.4-6.7,4.7-8.7,8-2.4l3.2,7.2l0.5-0.3l0.6-0.3l0.7-0.4
			c0.7-0.4,1.4-0.8,2.1-1.1c1.7-0.8,3.5-1.4,5.3-1.9c2.9-0.7,5.9-1,8.9-0.8c3.1,0.2,6.1,0.9,8.9,2c1.9,0.8,3.7,1.7,5.4,2.9l4-7.8
			c2.8-5.5,7-3.3,7.2,1.4l1,19.8l0,0c0,0.4,0,0.5,0,0.5c0,0.2,0,0.4,0.1,0.7l0.3,0.3c1.2,1.2,2.1,2.7,2.6,4.3
			c0.5,1.7,0.7,3.5,0.6,5.3c0,1.1-0.2,2.3-0.4,3.4c-0.2,1-0.6,2.1-1.1,3c-0.6,1.2-1.5,2.2-2.6,3c-0.5,0.4-1.1,0.7-1.7,0.9
			c-0.3,0.7-0.7,1.4-1.1,2.1c-0.5,0.8-0.1,0.2-0.3,0.4c-0.3,0.5-0.5,0.9-0.8,1.2l-0.6,0.8l-0.6,0.8v0.1l-0.8,1l-0.1,0.1l-0.1,0.2
			c-0.2,0.2-0.5,0.5-0.8,0.8c-0.7,0.8-1.5,1.5-2.3,2.2c-0.8,0.6-1.5,1.2-2.3,1.8c-0.9,0.6-1.8,1.2-2.7,1.6l0,0
			c-2,1.1-4.2,1.9-6.5,2.5c-2.3,0.5-4.6,0.8-7,0.9c-3.2,0-6.5-0.5-9.5-1.5c-3.1-1-5.9-2.5-8.4-4.5c-0.5-0.4-0.9-0.8-1.4-1.2
			c-0.5-0.4-1-0.9-1.4-1.4c-0.4-0.5-0.7-0.8-1-1.1c-0.4-0.4-0.7-0.9-1.1-1.3l-0.1-0.2c-0.1-0.2-0.3-0.3-0.3-0.4L84,73.2l0,0L83.8,73
			c-0.2-0.3-0.4-0.6-0.6-0.9l-0.5-0.8l-0.1-0.2l-1-1.9c-0.3-0.1-0.5-0.2-0.7-0.3c-2.2-1.1-3.9-3.1-4.6-5.5c-0.7-2.1-0.9-4.4-0.7-6.6
			C75.5,54.9,75.9,53.3,76.5,51.7L76.5,51.7z"/>
		<path class="st2" d="M100.3,71.3c0.5,0.1,1,0.3,1.5,0.5c3.9,1.3,8.1,1.2,11.9-0.3c0.3-0.1,0.5-0.3,0.7-0.2
			c0.1,0.4-0.3,0.4-0.5,0.6c-2.7,2-7.5,2.2-10.7,1.2c-1-0.3-1.9-0.8-2.8-1.4C100.3,71.6,100.2,71.6,100.3,71.3L100.3,71.3z M83,50.4
			c-1.4,4.8-1.2,9.9,0.4,14.6c0.1,0.3,0.2,0.6,0.3,0.8h-0.3c0.1,0.1,0.2,0.1,0.3,0.1c0.2,0.3,0.2,0.6,0.4,0.9l1.2,2.4
			c0.3,0.5,0.6,1,1,1.5c0.2,0.3,0.3,0.5,0.5,0.7s0.4,0.4,0.5,0.7c0.5,0.7,1.1,1.4,1.7,2c0.8,0.8,1.7,1.6,2.6,2.3
			c4.5,3.5,10.1,5.3,15.8,5.2c4.2,0,8.3-1.1,12-3c1.6-0.8,3.1-1.8,4.4-3c1-0.9,1.9-1.8,2.8-2.8l0.8-1c0.4-0.5,0.7-1,1-1.5
			s0.6-1,0.9-1.5c0.5-0.8,0.9-1.6,1.2-2.5c0.1-0.1,0.1-0.3,0.2-0.4c0.1-0.4,0.2-0.2,0.3-0.3c0-0.1,0,0,0,0c-0.3,0-0.1,0-0.1,0
			c1.7-4.3,2.1-9,1.1-13.5c-0.1-0.5-0.4-1.4-0.4-1.8c-0.2-0.1-0.2-0.5-0.2-0.7h0.9c0-0.5-0.1-1.5-0.1-2l-1.1-14.5l0,0l-1.5,2.3
			c-1,1.5-2,3.2-3,4.7c-0.1,0.1-0.1,0.1-0.1,0.3l-0.2,0.2c-0.2-0.1-0.5-0.5-0.8-0.8c0.3-0.5,0.6-0.9,0.9-1.4l1.8-2.7
			c0.3-0.4,0.6-0.9,0.9-1.4s0.6-0.9,0.9-1.4c0.1-0.2,0.3-0.5,0.4-0.7c0.1-0.2,0.3-0.4,0.4-0.7c0.3-0.5,0.4-0.4,0.4-0.8s0-0.8,0-1.1
			c0-0.7,0-1.5,0-2.2c-0.2,0.2-2.1,3.7-2.4,4.3c-0.8,1.4-1.6,2.9-2.4,4.3l-1.6,2.9c-0.2-0.1-0.5-0.3-0.6-0.5l-1.8-1.4l-2.6-1.7h-0.1
			h0.1c-0.7,2.4-1.2,4.9-1.6,7.4c0,0.4,0,0.7,0,1.1c0,0.4,0,0.6,0.4,0.7c0.6,0.1,1.3,0,1.9-0.2c0.6-0.1,1.2-0.3,1.7-0.5
			s1.2-0.5,1.7-0.6c-0.2,0.5-0.9,2-1.1,2.6c-0.2,0.4-0.4,0.8-0.6,1.2c-0.2,0.4-0.4,0.8-0.6,1.2c0.7,0.3,1.5,0.5,2.2,0.8
			s1.5,0.5,2.2,0.9c1,0.5,2,1,3,1.5c0.3,0.2,0.6,0.5,0.7,0.8c1,2.4,0.5,8.2-0.5,10.5c-0.1,0.3-0.3,0.7-0.5,1s-0.5,0.2-1.2,0.3
			c-2.7,0.3-5.6,0.5-8.3,0.7c-3.8,0.2-7.8,0.6-11.6,0.5c-5.8-0.2-11.3-0.5-17.1-1c-0.9-0.1-1.8-0.1-2.8-0.2c-0.7-0.1-0.7,0-0.9-0.5
			c-1.3-2.6-2-9.2-0.7-11.5c0.5-0.6,1.1-1,1.8-1.2c2-1.1,4.2-1.9,6.4-2.6l-1.2-1.9c-0.2-0.3-1.8-3-1.9-3.2c1.6,0.5,4.1,1.7,5.8,1.5
			c0.9-0.1,0.9-0.7,0.8-1.6c-0.2-1.4-0.5-2.7-0.8-4c-0.1-0.5-1.1-3.6-1.1-3.8l0.1-0.1l-0.1,0.1l0,0h-0.1l-0.1,0.1L94.4,36
			c-0.5,0.3-1,0.6-1.4,0.9c-0.4,0.3-0.9,0.6-1.3,1L90.4,39l-0.8-1.4c-0.3-0.5-0.6-1-0.8-1.4c-1-1.9-2.2-3.8-3.2-5.8L84,27.6
			c-0.1,0.7,0,1.5,0,2.2c0,1.4-0.2,1.1,0.3,1.9l1.8,2.7c0.3,0.5,0.6,0.9,0.9,1.4c0.2,0.2,0.3,0.4,0.4,0.7c0.2,0.3,0.1,0.2,0.2,0.3
			c0.3,0.5,1.9,2.9,2,3.1c-0.2,0.3-0.5,0.6-0.8,0.8l-1.9-2.9c-0.8-1.3-1.8-2.5-2.6-3.8l-0.5-0.7c-0.1-0.1-0.1-0.1-0.2-0.2
			c-0.1,2.8-0.4,5.6-0.6,8.3l-0.6,8.2h1C83.1,50,83.1,50.2,83,50.4L83,50.4z"/>
		<path class="st3" d="M121.2,56.2L121.2,56.2c0,2.2,0,3.7-1.3,5.4c-0.3,0.4-0.2,0.3-0.8,0.5c-2.3,0.6-4.8,0.7-7.1,0.2
			c-0.9-0.2-1.1-0.2-1.5-1.1c-0.8-2.2-1.1-4.6-0.7-6.9c1-3,3.6-4.1,6.7-3.7c0.7,0.1,1.4,0.3,2,0.6s1.1,0.7,1.5,1.2
			c1-0.2,2.1,1.3,1.8,2.8c-0.1,0.3-0.2,0.6-0.4,0.8L121.2,56.2L121.2,56.2z M106.3,64.8c3.4,0,5.7-0.1,9.2-0.3
			c4.2-0.2,7.6-0.6,11.7-1c0.4,0,0.5-0.2,0.8-1c0.8-2.1,1.4-7.1,0.5-9.5c-0.4-0.9-1-1.1-2-1.7c-5.4-3-12.4-4.2-18.7-4.1h-1.9
			c-4.2,0-8.5,0.7-12.5,2c-2.2,0.7-4.2,1.6-6.2,2.8c-1.2,0.7-1.3,2.9-1.2,4.2c0,2.3,0.4,4.7,1.2,6.9c0.2,0.3,0.1,0.4,0.5,0.4l5,0.5
			c2.2,0.2,4.5,0.4,6.7,0.5C101.5,64.7,104,64.8,106.3,64.8L106.3,64.8z"/>
		<path class="st4" d="M95.8,35.2L95.8,35.2c-0.1,0.3,0.8,3.3,1,3.9c0.4,1.3,0.7,2.7,0.8,4c0.1,0.9,0,1.5-0.8,1.6
			c-1.7,0.2-4.2-0.9-5.8-1.5c0.1,0.2,1.7,2.8,1.9,3.2l1.2,1.8c2.1-0.6,4.2-1,6.3-1.3c6.6-0.9,14.6-0.6,20.8,1.4
			c0.2-0.4,0.4-0.8,0.6-1.2c0.2-0.4,0.4-0.8,0.6-1.2c0.3-0.6,1-2.1,1.1-2.6c-0.5,0.1-1.1,0.5-1.7,0.6c-0.5,0.2-1.1,0.4-1.7,0.5
			c-0.6,0.2-1.3,0.3-1.9,0.2c-0.4-0.1-0.4-0.3-0.4-0.7s0-0.7,0-1.1c0.4-2.5,0.9-4.9,1.6-7.4h-0.1c-0.9-0.4-1.4-0.7-2.5-1.1
			c-5-2-10.5-2.3-15.8-1.1c-0.9,0.2-1.9,0.5-2.8,0.9c-0.4,0.2-0.9,0.3-1.3,0.5C96.5,34.8,96.1,35.1,95.8,35.2L95.8,35.2z"/>
		<path class="st5" d="M118.5,57.2c-0.2,2.2-1.3,3.4-3.4,3.2s-2.8-1.8-2.7-3.9s1.2-3.3,3.4-3.2C117.8,53.5,118.6,55.1,118.5,57.2z
			 M121.2,56.2c-1.1,1.1-2.3,0.3-2.8-0.9s0.3-3,1.5-2.9C120.6,52.9,121.2,55,121.2,56.2l0.2-0.2c0.2-0.2,0.3-0.5,0.3-0.8
			c0.3-1.4-0.7-2.9-1.8-2.8c-0.4-0.5-0.9-0.9-1.5-1.2s-1.3-0.5-2-0.6c-3.2-0.4-5.8,0.7-6.7,3.7c-0.4,2.3-0.2,4.7,0.7,6.9
			c0.5,1,0.7,0.9,1.5,1.1c2.4,0.5,4.8,0.4,7.1-0.2c0.6-0.2,0.5-0.1,0.8-0.5C121.2,59.9,121.2,58.4,121.2,56.2L121.2,56.2z"/>
		<path class="st6" d="M106.2,64.8c-2.3,0-4.7-0.2-7-0.3s-4.5-0.3-6.7-0.5l-5-0.5c-0.4,0-0.3-0.1-0.5-0.4c-0.8-2.2-1.2-4.5-1.2-6.9
			c0-1.3,0.1-3.5,1.2-4.2c1.9-1.2,4-2.1,6.2-2.8c4-1.3,8.3-2,12.5-2h1.9c6.3-0.1,13.3,1.1,18.7,4.1c1,0.6,1.6,0.8,2,1.7
			c0.9,2.4,0.3,7.4-0.5,9.5c-0.3,0.9-0.4,1-0.8,1c-4.1,0.4-7.5,0.7-11.7,1C111.9,64.6,109.6,64.7,106.2,64.8L106.2,64.8z M94,48.2
			c-2.3,0.6-4.5,1.5-6.6,2.5c-0.7,0.2-1.3,0.7-1.8,1.2c-1.3,2.4-0.7,8.9,0.7,11.5c0.3,0.5,0.3,0.5,0.9,0.5c0.9,0.1,1.8,0.2,2.8,0.2
			c5.7,0.5,11.3,0.8,17.1,1c3.8,0.1,7.8-0.2,11.6-0.5c2.7-0.2,5.6-0.4,8.3-0.7c0.7-0.1,1,0,1.2-0.3s0.4-0.7,0.5-1
			c1-2.3,1.5-8.1,0.5-10.5c-0.1-0.4-0.3-0.7-0.7-0.8c-1-0.6-2-1.1-3-1.5c-0.7-0.3-1.4-0.6-2.1-0.9c-0.7-0.3-1.5-0.5-2.2-0.8
			c-6.2-2-14.2-2.3-20.8-1.4C98.1,47.2,96,47.6,94,48.2z"/>
		<path class="st5" d="M98.9,53.3c0.9-0.1,1.8,0.1,2.6,0.7c0.6,0.7,0.9,1.5,0.9,2.4c0.1,2.2-0.6,3.8-2.6,4c-2.2,0.2-3.3-1-3.5-3
			C96.1,55.2,96.9,53.6,98.9,53.3L98.9,53.3z M103.9,52.5c0.4,0.5,0.7,1,0.9,1.6c0.3,0.7,0.3,1.5,0.2,2.3c-1,1.1-2.4,0.2-2.7-1
			C101.9,54,102.6,52.3,103.9,52.5z"/>
		<path class="st6" d="M83.4,65.8h0.3c-0.1-0.3-0.2-0.6-0.3-0.8c-1.6-4.7-1.8-9.8-0.4-14.6c-1.7,0-2.8,1.5-3.4,2.7
			C77.8,57.2,78.5,65.4,83.4,65.8z"/>
		<path class="st6" d="M131.2,65.8c1.5-0.2,2.9-1.2,3.6-2.6c0.7-1.5,1.1-3.2,1.2-4.9c0.1-2.3-0.5-5.5-2.1-7c-0.5-0.5-1.2-0.9-2-1
			c0,0.5,0.3,1.3,0.4,1.8c0.9,4.5,0.5,9.3-1.2,13.6C131,65.8,130.9,65.8,131.2,65.8L131.2,65.8z"/>
		<path class="st7" d="M100.5,57.5l0.2,0.1c-0.5,1.4-2.1,1.5-2.7,0c-0.2-0.7-0.2-1.4,0.2-2c0.5-0.7,1.3-0.8,1.6-0.5
			c0.2-0.2,0.2-0.3,0.4-0.4C101.6,54.2,102.1,57.6,100.5,57.5L100.5,57.5z M98.9,53.3c-2,0.2-2.8,1.8-2.6,4c0.2,2,1.3,3.3,3.5,3
			c2-0.2,2.7-1.9,2.6-4c0-0.9-0.3-1.7-0.9-2.4C100.7,53.4,99.8,53.2,98.9,53.3L98.9,53.3z"/>
		<path class="st7" d="M116.6,57.5l0.2,0.1c-0.2,0.6-0.7,1-1.3,1.1c-1.7,0.1-2.1-2.9-0.5-3.6c0.3-0.1,0.6-0.1,0.9,0
			c0.2-0.2,0.1-0.2,0.4-0.3c0.2-0.1,0.4-0.1,0.6,0C117.8,55.2,117.9,57.6,116.6,57.5L116.6,57.5z M118.5,57.2
			c0.2-2.1-0.7-3.7-2.7-3.9c-2.2-0.2-3.3,1-3.4,3.2s0.7,3.8,2.7,3.9S118.3,59.3,118.5,57.2z"/>
		<path class="st6" d="M113.6,71.6c-3.8,1.5-8,1.6-11.9,0.3c-0.5-0.2-1-0.4-1.5-0.5c-0.1,0.2,0,0.2,0.1,0.4c0.8,0.6,1.8,1.1,2.8,1.4
			c3.2,1,8,0.8,10.7-1.2c0.2-0.2,0.6-0.2,0.5-0.6C114.1,71.3,113.9,71.4,113.6,71.6L113.6,71.6z"/>
		<path class="st1" d="M103.9,52.5c-1.3-0.1-2,1.5-1.6,2.8c0.4,1.2,1.7,2.1,2.7,1c0.1-0.8,0-1.5-0.2-2.3
			C104.6,53.4,104.3,52.9,103.9,52.5z"/>
		<path class="st1" d="M121.2,56.2L121.2,56.2c0-1.2-0.5-3.3-1.2-3.8c-1.2-0.1-2,1.6-1.5,2.9C118.9,56.6,120.1,57.3,121.2,56.2
			L121.2,56.2z"/>
		<path d="M116.6,57.5c-0.4-0.1-0.7-0.5-0.8-0.9c-0.1-0.5-0.1-1,0.1-1.4c-0.3-0.1-0.6-0.1-0.9,0c-1.6,0.7-1.2,3.7,0.5,3.6
			c0.6-0.1,1.1-0.5,1.3-1.1L116.6,57.5L116.6,57.5z"/>
		<path d="M100.5,57.5c-0.4-0.1-0.7-0.5-0.8-0.9c-0.1-0.5-0.1-1,0.1-1.4c-0.3-0.3-1.1-0.2-1.6,0.5c-0.4,0.6-0.5,1.3-0.2,2
			c0.5,1.5,2.1,1.4,2.7,0L100.5,57.5L100.5,57.5z"/>
		<path class="st1" d="M99.8,55.2c-0.2,0.4-0.2,0.9-0.1,1.4c0.1,0.4,0.4,0.8,0.8,0.9c1.6,0.2,1-3.2-0.3-2.7
			C100,54.9,100,55.1,99.8,55.2L99.8,55.2z"/>
		<path class="st1" d="M116,55.2c-0.2,0.4-0.2,0.9-0.1,1.4c0.1,0.4,0.4,0.8,0.8,0.9c1.3,0.1,1.2-2.2,0.3-2.6c-0.2-0.1-0.4-0.1-0.6,0
			C116.1,55,116.2,55,116,55.2L116,55.2z"/>
		<path class="st5" d="M102.4,57.2c-0.2,2.2-1.3,3.4-3.4,3.2c-2.1-0.2-2.8-1.8-2.7-3.9s1.2-3.3,3.4-3.2
			C101.7,53.5,102.6,55.1,102.4,57.2z M105.1,56.2c-1.1,1.1-2.3,0.3-2.8-0.9s0.3-3,1.5-2.9C104.5,52.9,105.1,55,105.1,56.2l0.2-0.2
			c0.2-0.2,0.3-0.5,0.4-0.8c0.3-1.4-0.7-2.9-1.8-2.8c-0.4-0.5-0.9-0.9-1.5-1.2s-1.3-0.5-2-0.6c-3.2-0.4-5.8,0.7-6.7,3.7
			c-0.4,2.3-0.2,4.7,0.7,6.9c0.5,1,0.7,0.9,1.5,1.1c2.4,0.5,4.8,0.4,7.1-0.2c0.6-0.2,0.5-0.1,0.8-0.5
			C105.1,59.9,105.1,58.4,105.1,56.2L105.1,56.2z"/>
		<path class="st4" d="M445.8,96.2h-5v15.2h11.7v-3.8h-6.7V96.2L445.8,96.2z M461.1,95.8c-3.1-0.1-6,1.7-7.2,4.6
			c-0.4,1.1-0.6,2.3-0.6,3.4c0,3,1.3,5.8,4,7.1c1.2,0.5,2.5,0.8,3.8,0.8c1.2,0,4.6-0.2,6.6-3.2c0.9-1.4,1.4-3.1,1.4-4.8
			c0-3.2-1.4-6.1-4.2-7.3C463.7,96,462.4,95.8,461.1,95.8L461.1,95.8z M461.2,99.6c1.4,0,2.6,1,2.8,2.3c0.1,0.6,0.2,1.2,0.2,1.8
			c0.1,1.2-0.2,2.4-0.9,3.4c-0.5,0.6-1.3,1-2.1,0.9c-0.7,0-1.3-0.2-1.9-0.6c-0.7-0.6-1.1-1.5-1.1-3.5c-0.1-1.2,0.2-2.3,0.8-3.3
			C459.5,99.9,460.3,99.5,461.2,99.6L461.2,99.6z M474.8,96.2l-5.4,15.2h4.8l0.6-2h5.1l0.6,2h4.9L480,96.2H474.8z M477.3,100.8
			l1.6,5.6h-3.3L477.3,100.8L477.3,100.8z M486.8,96.2v15.2h4.5v-9l5.3,9h5V96.2h-4.5v9l-5.3-9H486.8z M517.6,100.6
			c-0.1-0.7-0.3-1.5-0.7-2.1s-0.8-1.1-1.4-1.5c-1.3-0.8-2.9-1.2-4.4-1.1c-1.5-0.1-2.9,0.2-4.2,0.9c-1.4,0.8-2.3,2.4-2.2,4
			c0,0.5,0.1,1.1,0.3,1.6c0.4,1.2,1.4,2.1,2.6,2.5c1,0.4,2.1,0.7,3.2,0.9c0.7,0.1,1.4,0.4,2,0.7c0.3,0.2,0.4,0.4,0.4,0.8
			c0,0.2-0.1,0.4-0.2,0.6c-0.4,0.6-1.4,0.5-1.5,0.5c-1.2,0-1.8-0.4-2.1-0.9c-0.1-0.2-0.1-0.4-0.2-0.6h-4.8c0,0.3,0.1,0.7,0.2,1
			c0.4,1.4,1.6,3.3,4.9,3.9c0.7,0.1,1.3,0.2,2,0.2c1.5,0.1,3-0.3,4.3-1.1c1.4-0.9,2.2-2.4,2.2-4c0-0.6-0.1-1.2-0.3-1.7
			c-0.3-0.7-0.7-1.3-1.3-1.8c-0.6-0.4-1.2-0.7-1.9-0.9c-0.7-0.2-1.4-0.4-2.1-0.6c-0.9-0.1-1.8-0.4-2.6-0.9c-0.2-0.1-0.2-0.3-0.2-0.6
			c0-0.2,0.1-0.4,0.2-0.5c0.2-0.3,0.5-0.5,1.4-0.5c1.5,0,1.7,0.5,2,1.2H517.6L517.6,100.6z"/>
		<g>
			<path class="st4" d="M339.5,111.5h-4.7V96.2h4.7V111.5z"/>
			<path class="st4" d="M356.7,111.5h-4.5l-3.7-6.5c-0.4-0.7-0.8-1.5-1.2-2.3c0.1,1.2,0.1,2.3,0.1,3.5v5.3h-4.5V96.2h4.6l3.3,5.7
				c0.5,0.9,1.1,1.9,1.5,2.9c-0.1-1.2-0.1-2.3-0.1-3.5v-5.1h4.5L356.7,111.5L356.7,111.5z"/>
			<path class="st4" d="M367.8,100.9c0-0.9-0.7-1.5-1.9-1.5c-1,0-1.5,0.3-1.5,0.9c0,0.9,2.6,1.3,3.2,1.5c2.5,0.7,5.2,1.6,5.2,4.8
				s-2.6,5.2-6.6,5.2c-4.3,0-6.9-2.1-6.9-5.5h4.7c0.1,1.5,1,2,2.4,2c1.2,0,1.9-0.5,1.9-1.3c0-0.3-0.1-0.4-0.3-0.6
				c-0.6-0.5-3.2-1.2-4.3-1.5c-2.2-0.7-3.8-1.6-3.8-4.2c0-2.9,2.5-4.8,6.2-4.8c3.9,0,6.1,1.8,6.2,4.9L367.8,100.9L367.8,100.9z"/>
			<path class="st4" d="M388,100.1h-4.3v11.3H379v-11.3h-4.3v-3.9h13.2L388,100.1L388,100.1z"/>
			<path class="st4" d="M402.6,111.5h-4.7l-0.7-2.2h-4.9l-0.7,2.2h-4.7l5.6-15.2h4.6L402.6,111.5z M395.2,103.4
				c-0.3-1-0.4-1.3-0.6-2.3c-0.3,1-0.3,1.4-0.6,2.3c0,0-0.3,1-0.8,2.6h2.9C395.8,105.2,395.2,103.4,395.2,103.4z"/>
			<path class="st4" d="M417.3,111.5h-4.5L409,105c-0.4-0.7-0.8-1.5-1.2-2.3c0.1,1.2,0.1,2.3,0.1,3.5v5.3h-4.5V96.2h4.6l3.3,5.7
				c0.5,0.9,1.1,1.9,1.5,2.9c-0.1-1.2-0.1-2.3-0.1-3.5v-5.1h4.5v15.3H417.3z"/>
			<path class="st4" d="M433.3,100.1H429v11.3h-4.7v-11.3H420v-3.9h13.2L433.3,100.1L433.3,100.1z"/>
		</g>
	</g>
</g>
</svg>
